PathFileType	4	(X/Y/Z)	s06c0001.trc
DataRate	CameraRate	NumFrames	NumMarkers	Units	OrigDataRate	OrigDataStartFrame	OrigNumFrames
200	200	6	49	mm	200	1000	2000
Frame#	Time	racr			lacr			c7			jug			rlel			rdr			llel			ldr			s2			lic			ric			lasi			rasi			rpsi			lpsi			rgt			lgt			rth1			rth2			rth3			rth4			rlfc			rmfc			rsh1			rsh2			rsh3			rsh4			rlmal			rmmal			rcal			rtoe			rmt5			rmt1			lth1			lth2			lth4			lth3			llfc			lmfc			llmal			lmmal			lcal			lmt1			lmt5			lsh1			lsh2			lsh3			lsh4			ltoe			
		X1	Y1	Z1	X2	Y2	Z2	X3	Y3	Z3	X4	Y4	Z4	X5	Y5	Z5	X6	Y6	Z6	X7	Y7	Z7	X8	Y8	Z8	X9	Y9	Z9	X10	Y10	Z10	X11	Y11	Z11	X12	Y12	Z12	X13	Y13	Z13	X14	Y14	Z14	X15	Y15	Z15	X16	Y16	Z16	X17	Y17	Z17	X18	Y18	Z18	X19	Y19	Z19	X20	Y20	Z20	X21	Y21	Z21	X22	Y22	Z22	X23	Y23	Z23	X24	Y24	Z24	X25	Y25	Z25	X26	Y26	Z26	X27	Y27	Z27	X28	Y28	Z28	X29	Y29	Z29	X30	Y30	Z30	X31	Y31	Z31	X32	Y32	Z32	X33	Y33	Z33	X34	Y34	Z34	X35	Y35	Z35	X36	Y36	Z36	X37	Y37	Z37	X38	Y38	Z38	X39	Y39	Z39	X40	Y40	Z40	X41	Y41	Z41	X42	Y42	Z42	X43	Y43	Z43	X44	Y44	Z44	X45	Y45	Z45	X46	Y46	Z46	X47	Y47	Z47	X48	Y48	Z48	X49	Y49	Z49	
1000	5.0000	226.524323	1418.144409	397.377808	228.698380	1429.387207	42.647896	190.061432	1490.284912	217.115036	311.068939	1395.912964	223.274490	248.147736	1201.103516	575.952393	350.907684	1043.661377	766.610840	235.444977	1207.357910	-128.870605	332.272125	1070.056396	-329.493500	115.551628	964.663696	229.782227	267.472748	1008.399780	50.719421	278.627808	986.784424	387.929291	320.191589	955.283142	79.697777	332.084900	945.348450	349.951965	139.587616	998.316101	257.101471	126.269135	995.385559	193.524094	240.999756	871.846802	400.708160	246.096756	896.701294	27.424179	251.018127	749.742249	419.976746	259.335907	660.063293	413.297882	223.124680	582.260315	399.784790	295.902283	655.742188	403.971863	205.490952	473.387970	380.115356	220.555313	450.252014	271.917908	174.680328	353.372772	401.685120	188.372375	267.686829	381.819763	159.874374	186.601059	370.483337	216.912384	269.750305	354.377167	154.689240	99.794807	358.313721	199.913574	122.013680	273.159149	109.521500	65.711945	297.035034	382.155823	75.524109	334.575287	280.664856	43.258339	392.353333	303.951843	59.711575	276.958008	229.565445	764.067322	11.654325	243.544144	677.798889	16.813755	279.864410	674.262329	25.223934	211.191528	595.464233	28.895159	182.393356	477.172119	49.462303	203.313477	455.825439	159.461899	154.580734	99.234161	55.988319	171.028732	121.942291	141.034592	100.973534	58.875233	110.513504	310.723633	52.374569	132.943604	290.061798	51.063190	17.870094	159.961990	370.678772	23.719723	177.314713	285.871765	36.688152	150.058548	202.035660	37.861923	208.001999	286.283539	61.360149	380.340057	71.575134	69.489037	
1001	5.0050	226.532257	1418.165161	397.368347	228.680710	1429.387695	42.644806	190.061508	1490.295654	217.088730	311.061951	1395.924438	223.277969	248.155777	1201.109253	575.928284	350.960114	1043.688477	766.601929	235.422958	1207.353516	-128.865814	332.271851	1070.053345	-329.502869	115.545502	964.653992	229.781326	267.469849	1008.400330	50.738625	278.595093	986.802917	387.932831	320.187866	955.273621	79.708092	332.056335	945.365784	349.928040	139.561554	998.315125	257.121552	126.260101	995.363892	193.541428	241.007782	871.849182	400.695374	246.107025	896.700195	27.435652	250.990204	749.757019	419.990723	259.323090	660.088806	413.313538	223.095108	582.275085	399.795715	295.874725	655.749939	403.984436	205.468506	473.396545	380.110107	220.531128	450.252197	271.913147	174.662750	353.377747	401.692596	188.381760	267.685303	381.795990	159.875122	186.596634	370.479340	216.915070	269.729309	354.376282	154.681824	99.811867	358.306000	199.912369	121.990318	273.156708	109.537399	65.705208	297.049744	382.151367	75.535469	334.560272	280.672211	43.250462	392.357849	303.959015	59.712276	276.954498	229.565170	764.065247	11.655252	243.551895	677.801514	16.827709	279.876740	674.263733	25.243656	211.187302	595.455444	28.899599	182.393143	477.157623	49.449425	203.297638	455.844391	159.459366	154.583084	99.217896	55.981281	171.030640	121.943657	141.021774	100.978149	58.858116	110.515381	310.734497	52.363052	132.950470	290.060944	51.066799	17.865866	159.963455	370.673981	23.723219	177.295166	285.891785	36.685196	150.062134	202.039017	37.845234	208.003067	286.280945	61.360779	380.363556	71.583801	69.500191	
1002	5.0100	226.516830	1418.167114	397.373871	228.667816	1429.387207	42.632267	190.061508	1490.295654	217.088745	311.051819	1395.931396	223.262253	248.173721	1201.122681	575.939575	350.987091	1043.741333	766.597290	235.407700	1207.357910	-128.882950	332.252655	1070.053589	-329.501831	115.534660	964.666992	229.790176	267.465210	1008.401001	50.730503	278.579590	986.804565	387.913879	320.166901	955.272095	79.718193	332.030273	945.380127	349.940552	139.504318	998.270203	257.131805	126.226952	995.382690	193.530975	241.007324	871.848572	400.698853	246.080048	896.700439	27.426369	250.983276	749.753418	419.977051	259.305359	660.101440	413.322968	223.099808	582.262329	399.785095	295.861694	655.757080	403.979614	205.461594	473.398865	380.110657	220.513229	450.265045	271.909821	174.648376	353.365631	401.688049	188.381607	267.684845	381.796326	159.872055	186.582413	370.485962	216.915436	269.754852	354.397156	154.684357	99.774872	358.314362	199.932877	122.000755	273.168274	109.537392	65.705208	297.049744	382.155518	75.542526	334.552399	280.684296	43.256737	392.357819	303.962372	59.701572	276.971375	229.560074	764.066223	11.652903	243.567581	677.794067	16.847294	279.858307	674.288269	25.221893	211.175217	595.472900	28.891556	182.411957	477.156586	49.452637	203.272034	455.823761	159.462357	154.590973	99.237854	55.981781	171.057159	121.934540	141.020157	100.984322	58.864048	110.496056	310.741150	52.378944	132.964111	290.069427	51.072918	17.871601	159.969818	370.666412	23.729910	177.297684	285.886627	36.690704	150.061752	202.038239	37.847103	207.982178	286.284790	61.349327	380.361115	71.565941	69.494102	
1003	5.0150	226.503342	1418.182617	397.360352	228.640289	1429.386963	42.614975	190.015839	1490.285400	217.088913	311.033630	1395.949341	223.243683	248.181976	1201.173340	575.907410	351.029663	1043.785645	766.596497	235.395523	1207.359985	-128.881882	332.232544	1070.054199	-329.506226	115.527847	964.651550	229.783112	267.453552	1008.416199	50.707352	278.562531	986.809875	387.913239	320.165985	955.288147	79.716248	331.986115	945.349915	349.924316	139.534348	998.316772	257.112946	126.220329	995.369812	193.546783	241.035568	871.844727	400.667938	246.077682	896.698975	27.428108	250.976166	749.753906	419.978516	259.307678	660.098877	413.309082	223.079575	582.276611	399.793396	295.849731	655.743469	403.967651	205.451477	473.402405	380.117004	220.528839	450.250732	271.926056	174.638214	353.372925	401.692017	188.378021	267.697021	381.793915	159.855057	186.606598	370.461884	216.917130	269.764801	354.399719	154.683853	99.793533	358.325134	199.923660	121.993690	273.150360	109.537544	65.719009	297.039764	382.165894	75.524254	334.562103	280.671204	43.259048	392.361572	303.948883	59.701210	276.949280	229.551483	764.066895	11.651163	243.555130	677.791077	16.846678	279.860504	674.256897	25.231939	211.171310	595.463684	28.878683	182.389847	477.158356	49.449123	203.258514	455.803589	159.444427	154.592422	99.237274	55.981544	171.025116	121.958046	141.028183	100.972740	58.873833	110.494522	310.740967	52.369785	132.952820	290.069122	51.073586	17.863625	159.956909	370.684082	23.709137	177.298889	285.882690	36.679924	150.062546	202.039566	37.842461	207.981079	286.277985	61.352623	380.355255	71.572044	69.494789	
1004	5.0200	226.496002	1418.203735	397.357086	228.622101	1429.387207	42.606548	189.958893	1490.309204	217.107437	311.022675	1395.957520	223.244888	248.197449	1201.195923	575.908997	351.073212	1043.826538	766.582886	235.361481	1207.357056	-128.886078	332.207764	1070.056519	-329.509674	115.517944	964.652954	229.790283	267.437805	1008.403564	50.717930	278.558105	986.815308	387.914246	320.145050	955.311707	79.713593	331.962646	945.368103	349.947174	139.550598	998.323120	257.107727	126.204407	995.384888	193.540695	241.021820	871.856812	400.684052	246.064026	896.707825	27.428516	250.954208	749.768372	419.981842	259.298584	660.094360	413.317078	223.069855	582.280212	399.791138	295.846436	655.763306	403.976227	205.436523	473.388275	380.108459	220.507538	450.254608	271.895996	174.642670	353.378082	401.689056	188.350479	267.697418	381.806915	159.854370	186.589935	370.469360	216.912033	269.757812	354.382782	154.678864	99.785362	358.314667	199.914108	121.979149	273.167542	109.537766	65.717827	297.014923	382.155792	75.540474	334.555145	280.665558	43.257183	392.351501	303.959839	59.720787	276.955933	229.550781	764.047119	11.654661	243.529739	677.805420	16.833200	279.869385	674.270142	25.254017	211.176208	595.456482	28.896986	182.384079	477.164093	49.447365	203.255127	455.816406	159.445724	154.574478	99.219048	55.971397	171.040405	121.937805	141.035202	100.968361	58.886307	110.497955	310.736633	52.368866	132.956573	290.060211	51.075195	17.869989	159.945541	370.671875	23.714811	177.270020	285.882294	36.678123	150.062546	202.039551	37.842457	207.996811	286.277649	61.350357	380.345490	71.571259	69.499603	
1005	5.0250	226.496979	1418.214966	397.373383	228.607452	1429.395508	42.609718	189.973785	1490.299927	217.092072	311.025909	1395.969482	223.232864	248.196167	1201.182983	575.931946	351.117065	1043.861816	766.602051	235.353531	1207.363647	-128.883087	332.215210	1070.065918	-329.510620	115.507454	964.653748	229.790054	267.430359	1008.418945	50.720776	278.540466	986.819824	387.912018	320.137787	955.295288	79.712234	331.945770	945.361755	349.926361	139.535370	998.291504	257.109985	126.187973	995.378540	193.525085	241.041336	871.852722	400.679047	246.060394	896.699768	27.434402	250.945297	749.768494	419.987671	259.280518	660.109192	413.319763	223.052872	582.276855	399.807831	295.827637	655.770142	403.992340	205.429428	473.400360	380.119446	220.528641	450.248779	271.920746	174.641190	353.379272	401.694702	188.344482	267.681427	381.809509	159.852417	186.603424	370.473022	216.901367	269.766907	354.390198	154.690948	99.781067	358.311798	199.912415	121.990334	273.156738	109.538422	65.702209	297.008240	382.147369	75.539474	334.568207	280.681702	43.251549	392.366028	303.952057	59.711205	276.957977	229.546799	764.061157	11.655861	243.526108	677.790955	16.849018	279.848236	674.275818	25.270094	211.175476	595.457092	28.897917	182.360916	477.168976	49.451702	203.218506	455.809296	159.441727	154.579895	99.225922	55.971142	171.032257	121.946373	141.028046	100.974907	58.861408	110.493103	310.743835	52.375561	132.953506	290.060883	51.063496	17.867414	159.940247	370.673981	23.730022	177.284729	285.883240	36.680244	150.052795	202.032059	37.845329	207.956131	286.289459	61.335186	380.352600	71.571770	69.515541	
